<?xml version="1.0" standalone="no"?>
<!DOCTYPE svg PUBLIC "-//W3C//DTD SVG 20010904//EN"
 "http://www.w3.org/TR/2001/REC-SVG-20010904/DTD/svg10.dtd">
<svg version="1.0" xmlns="http://www.w3.org/2000/svg"
 width="512.000000pt" height="512.000000pt" viewBox="0 0 512.000000 512.000000"
 preserveAspectRatio="xMidYMid meet">

<g transform="translate(0.000000,512.000000) scale(0.100000,-0.100000)"
fill="#000000" stroke="none">
<path d="M460 4313 c-203 -20 -368 -154 -436 -354 -17 -51 -18 -127 -21 -1376
-4 -1455 -7 -1387 57 -1513 39 -77 133 -171 210 -210 126 -64 -20 -60 2295
-60 2311 0 2160 -4 2285 58 70 35 177 142 212 212 61 124 58 51 58 1490 0
1439 3 1366 -58 1490 -35 70 -142 177 -212 212 -125 62 25 58 -2265 56 -1149
0 -2106 -3 -2125 -5z m2672 -679 c315 -201 819 -524 1121 -716 301 -193 547
-354 547 -358 0 -4 -217 -146 -482 -316 -266 -169 -614 -392 -774 -495 -160
-103 -447 -286 -637 -408 l-347 -221 -358 228 c-1125 718 -1882 1205 -1882
1212 0 4 289 193 643 419 353 226 856 548 1117 715 261 168 476 305 477 305 2
1 260 -164 575 -365z"/>
<path d="M2401 3499 c-285 -50 -543 -238 -677 -492 l-36 -68 34 5 c149 23 432
23 596 0 415 -57 804 -219 1116 -464 l65 -51 7 27 c4 14 4 81 1 148 -19 411
-290 752 -692 871 -73 22 -115 28 -225 30 -74 2 -159 0 -189 -6z"/>
<path d="M1741 2805 c-53 -7 -97 -19 -101 -26 -17 -27 -33 -186 -27 -274 24
-345 224 -645 532 -795 143 -71 247 -94 415 -94 106 0 154 5 224 22 291 73
547 292 657 563 16 39 29 72 29 74 0 7 -158 130 -235 182 -275 184 -600 305
-933 347 -147 19 -426 19 -561 1z"/>
</g>
</svg>
